<?xml version="1.0" encoding="utf-8"?>
<!-- Generator: Adobe Illustrator 24.3.0, SVG Export Plug-In . SVG Version: 6.00 Build 0)  -->
<svg version="1.1" id="Capa_1" xmlns="http://www.w3.org/2000/svg" xmlns:xlink="http://www.w3.org/1999/xlink" x="0px" y="0px"
	 viewBox="0 0 250 80" style="enable-background:new 0 0 250 80;" xml:space="preserve">
<style type="text/css">
	.st0{fill:#35383A;}
	.st1{fill:#AA004F;}
	.st2{fill:#960048;}
	.st3{fill:#7B868C;}
</style>
<g>
	<path class="st0" d="M91.8,63.9c-0.8-0.4-1.4-1-1.9-1.8c-0.5-0.8-0.7-1.7-0.7-2.6c0-1,0.2-1.9,0.7-2.6c0.5-0.8,1.1-1.4,1.9-1.8
		c0.8-0.4,1.6-0.7,2.6-0.7s1.8,0.2,2.6,0.7c0.8,0.4,1.4,1,1.8,1.8c0.5,0.8,0.7,1.7,0.7,2.6c0,1-0.2,1.9-0.7,2.6
		c-0.5,0.8-1.1,1.4-1.8,1.8c-0.8,0.4-1.6,0.7-2.6,0.7S92.5,64.4,91.8,63.9z M96.3,61.6c0.5-0.5,0.7-1.2,0.7-2.1
		c0-0.9-0.2-1.6-0.7-2.1c-0.5-0.5-1.1-0.8-1.9-0.8c-0.8,0-1.4,0.3-1.9,0.8c-0.5,0.5-0.7,1.2-0.7,2.1c0,0.9,0.2,1.6,0.7,2.1
		c0.5,0.5,1.1,0.8,1.9,0.8C95.1,62.4,95.8,62.1,96.3,61.6z"/>
	<path class="st0" d="M108.2,54.5v1.9h-4.1v2.1h3v1.9h-3v4h-2.4v-10H108.2z"/>
	<path class="st0" d="M112.7,54.5v10h-2.4v-10H112.7z"/>
	<path class="st0" d="M115.6,56.8c0.4-0.8,1-1.4,1.8-1.8c0.8-0.4,1.6-0.6,2.6-0.6c1.2,0,2.2,0.3,3,0.9c0.8,0.6,1.4,1.5,1.7,2.6H122
		c-0.2-0.4-0.5-0.7-0.8-1c-0.4-0.2-0.8-0.3-1.2-0.3c-0.7,0-1.4,0.3-1.8,0.8c-0.5,0.5-0.7,1.2-0.7,2.1c0,0.9,0.2,1.6,0.7,2.1
		c0.5,0.5,1.1,0.8,1.8,0.8c0.5,0,0.9-0.1,1.2-0.3c0.4-0.2,0.6-0.5,0.8-1h2.7c-0.3,1.1-0.8,1.9-1.7,2.6c-0.8,0.6-1.9,0.9-3,0.9
		c-1,0-1.8-0.2-2.6-0.6c-0.8-0.4-1.4-1-1.8-1.8c-0.4-0.8-0.6-1.6-0.6-2.6C115,58.5,115.2,57.6,115.6,56.8z"/>
	<path class="st0" d="M129.5,54.5v10h-2.4v-10H129.5z"/>
	<path class="st0" d="M141.1,64.5h-2.4l-4.1-6.2v6.2h-2.4v-10h2.4l4.1,6.2v-6.2h2.4V64.5z"/>
	<path class="st0" d="M149.9,62.7h-3.7l-0.6,1.8H143l3.6-10h2.8l3.6,10h-2.6L149.9,62.7z M149.3,60.8l-1.2-3.7l-1.2,3.7H149.3z"/>
	<path class="st0" d="M156.7,64.2c-0.6-0.2-1-0.6-1.4-1.1c-0.3-0.5-0.5-1-0.5-1.7h2.6c0,0.4,0.2,0.7,0.4,0.8
		c0.2,0.2,0.5,0.3,0.9,0.3c0.4,0,0.6-0.1,0.9-0.2c0.2-0.2,0.3-0.4,0.3-0.7c0-0.2-0.1-0.5-0.2-0.6c-0.2-0.2-0.4-0.3-0.6-0.4
		c-0.2-0.1-0.6-0.2-1-0.4c-0.6-0.2-1.2-0.4-1.6-0.6c-0.4-0.2-0.8-0.5-1.1-0.9c-0.3-0.4-0.4-0.9-0.4-1.5c0-0.9,0.3-1.7,1-2.2
		c0.7-0.5,1.5-0.8,2.6-0.8c1.1,0,2,0.3,2.7,0.8c0.7,0.5,1,1.3,1.1,2.2h-2.6c0-0.3-0.1-0.6-0.4-0.8c-0.2-0.2-0.5-0.3-0.8-0.3
		c-0.3,0-0.5,0.1-0.7,0.2c-0.2,0.2-0.3,0.4-0.3,0.7c0,0.3,0.2,0.6,0.5,0.8c0.3,0.2,0.8,0.4,1.4,0.6c0.6,0.2,1.2,0.4,1.6,0.6
		c0.4,0.2,0.8,0.5,1,0.9c0.3,0.4,0.4,0.9,0.4,1.5c0,0.6-0.1,1.1-0.4,1.5c-0.3,0.5-0.7,0.8-1.3,1.1c-0.5,0.3-1.2,0.4-1.9,0.4
		C157.9,64.6,157.3,64.5,156.7,64.2z"/>
	<path class="st0" d="M177.9,54.5l-3.5,10h-3l-3.5-10h2.6l2.5,7.5l2.5-7.5H177.9z"/>
	<path class="st0" d="M182.2,54.5v10h-2.4v-10H182.2z"/>
	<path class="st0" d="M189.9,64.5l-2.1-3.8h-0.6v3.8h-2.4v-10h4.1c0.8,0,1.5,0.1,2,0.4c0.6,0.3,1,0.7,1.2,1.1c0.3,0.5,0.4,1,0.4,1.6
		c0,0.7-0.2,1.3-0.6,1.8c-0.4,0.5-0.9,0.9-1.7,1.1l2.3,4H189.9z M187.3,59h1.5c0.4,0,0.8-0.1,1-0.3c0.2-0.2,0.3-0.5,0.3-0.9
		c0-0.4-0.1-0.7-0.3-0.9c-0.2-0.2-0.6-0.3-1-0.3h-1.5V59z"/>
	<path class="st0" d="M202.2,54.5v1.9h-2.6v8h-2.4v-8h-2.6v-1.9H202.2z"/>
	<path class="st0" d="M206.6,54.5v6c0,0.6,0.1,1.1,0.4,1.4c0.3,0.3,0.7,0.5,1.3,0.5c0.6,0,1-0.2,1.3-0.5c0.3-0.3,0.5-0.8,0.5-1.4v-6
		h2.4v6c0,0.9-0.2,1.6-0.6,2.3c-0.4,0.6-0.9,1.1-1.5,1.4c-0.6,0.3-1.4,0.5-2.1,0.5c-0.8,0-1.5-0.2-2.1-0.5c-0.6-0.3-1.1-0.8-1.5-1.4
		c-0.4-0.6-0.5-1.4-0.5-2.3v-6H206.6z"/>
	<path class="st0" d="M221.3,62.7h-3.7l-0.6,1.8h-2.5l3.6-10h2.8l3.6,10h-2.6L221.3,62.7z M220.7,60.8l-1.2-3.7l-1.2,3.7H220.7z"/>
	<path class="st0" d="M228.9,62.6h3.2v1.9h-5.6v-10h2.4V62.6z"/>
	<path class="st0" d="M236.6,56.4v2h3.3v1.9h-3.3v2.2h3.7v1.9h-6.1v-10h6.1v1.9H236.6z"/>
	<path class="st0" d="M244.3,64.2c-0.6-0.2-1-0.6-1.4-1.1c-0.3-0.5-0.5-1-0.5-1.7h2.6c0,0.4,0.2,0.7,0.4,0.8
		c0.2,0.2,0.5,0.3,0.9,0.3c0.4,0,0.6-0.1,0.9-0.2c0.2-0.2,0.3-0.4,0.3-0.7c0-0.2-0.1-0.5-0.2-0.6c-0.2-0.2-0.4-0.3-0.6-0.4
		c-0.2-0.1-0.6-0.2-1-0.4c-0.6-0.2-1.2-0.4-1.6-0.6c-0.4-0.2-0.8-0.5-1.1-0.9c-0.3-0.4-0.4-0.9-0.4-1.5c0-0.9,0.3-1.7,1-2.2
		c0.7-0.5,1.5-0.8,2.6-0.8c1.1,0,2,0.3,2.7,0.8c0.7,0.5,1,1.3,1.1,2.2h-2.6c0-0.3-0.1-0.6-0.4-0.8c-0.2-0.2-0.5-0.3-0.8-0.3
		c-0.3,0-0.5,0.1-0.7,0.2c-0.2,0.2-0.3,0.4-0.3,0.7c0,0.3,0.2,0.6,0.5,0.8c0.3,0.2,0.8,0.4,1.4,0.6c0.6,0.2,1.2,0.4,1.6,0.6
		c0.4,0.2,0.8,0.5,1,0.9c0.3,0.4,0.4,0.9,0.4,1.5c0,0.6-0.1,1.1-0.4,1.5c-0.3,0.5-0.7,0.8-1.3,1.1c-0.5,0.3-1.2,0.4-1.9,0.4
		C245.6,64.6,244.9,64.5,244.3,64.2z"/>
</g>
<g>
	<g>
		<path class="st1" d="M19.6,7.3h28.9c0.5,0,0.9,0.3,1.1,0.8l0,0.1c0.1,0.4,0,0.9-0.3,1.2L8.1,50.5c-0.7,0.7-1.9,0.5-2.4-0.3
			l-5.5-9.5c-0.3-0.4-0.3-1,0-1.4L18.5,7.9C18.7,7.5,19.1,7.3,19.6,7.3z"/>
	</g>
	<g>
		<path class="st2" d="M60.3,13.5l15.2,26.4L63.7,61c-0.7,1.2-2.2,1.4-3.2,0.4L36.3,37.3c-0.7-0.7-0.7-1.8,0-2.4l21.9-21.7
			C58.8,12.6,59.9,12.7,60.3,13.5z"/>
	</g>
	<g>
		<path class="st3" d="M30,43.4l27.4,27.4c0.3,0.3,0.3,0.7,0.2,1l0,0c-0.3,0.6-0.9,1-1.6,1H19.8c-0.5,0-1-0.3-1.3-0.7l-7.2-12
			l16.8-16.6C28.6,42.9,29.5,42.9,30,43.4z"/>
	</g>
</g>
<g>
	<g>
		<path class="st0" d="M111.5,15.5v6.2H104v22h-7.8v-22h-7.4v-6.2H111.5z"/>
	</g>
	<g>
		<path class="st0" d="M173.6,15.5v16.4c0,1.5,0.4,2.7,1.1,3.5c0.7,0.8,1.8,1.2,3.2,1.2s2.5-0.4,3.3-1.3c0.7-0.8,1.1-2,1.1-3.5V15.5
			h7.8v16.4c0,2.6-0.5,4.8-1.6,6.6c-1.1,1.8-2.6,3.2-4.5,4.1c-1.9,0.9-4,1.4-6.3,1.4c-2.3,0-4.3-0.5-6.1-1.4s-3.2-2.3-4.2-4.1
			c-1-1.8-1.5-4-1.5-6.6V15.5H173.6z"/>
	</g>
	<g>
		<path class="st0" d="M250,15.5v28.2h-7.8V15.5H250z"/>
	</g>
	<g>
		<polygon class="st0" points="140.9,15.5 133.5,15.5 123.2,43.7 130.5,43.7 		"/>
		<path class="st0" d="M142.5,15.6l-3.7,10.2c-0.1,0.2-0.1,0.5,0,0.7l2.2,6.7H136l-1.8,5c-0.2,0.5,0.2,1,0.7,1h8l1.5,4.6h8.3
			L142.5,15.6z"/>
	</g>
	<path class="st0" d="M221.8,32.7c2-0.6,3.6-1.6,4.6-3.1c1.1-1.5,1.6-3.1,1.6-5.1c0-1.7-0.4-3.2-1.2-4.6c-0.8-1.4-2-2.5-3.6-3.2
		c-1.6-0.8-3.5-1.2-5.8-1.2h-12.4v28.2h6.9V22.1h1h0.8h3c1,0,1.8,0.3,2.4,0.8c0.5,0.5,0.8,1.2,0.8,2.1c0,1-0.3,1.7-0.8,2.2
		c-0.5,0.5-1.3,0.8-2.4,0.8h-2.7c-0.2,0-0.3,0.1-0.3,0.3v4.9c0,0.1,0,0.2,0.1,0.3l5.5,10.3h8.8L221.8,32.7z"/>
</g>
</svg>
